<svg xmlns="http://www.w3.org/2000/svg" viewBox="9 -77 101 77" fill="white" fill-opacity="0.3">
  <path d="M26.2207-13.8184L27.3438-9.08203Q28.5156-4.54102 31.1523-2.14844Q33.7891 0.244141 38.7207 0.244141L81.0547 0.244141Q85.9375 0.244141 88.5986-2.12402Q91.2598-4.49219 92.3828-9.08203L93.5547-13.8184ZM24.8047-19.4824L94.9707-19.4824L102.393-49.8535L99.1699-51.6113L80.3711-37.5977Q78.9062-36.5234 77.9785-37.9395L60.5957-64.8926L59.1797-64.9902L41.6992-37.8906Q41.3086-37.3047 40.7959-37.1094Q40.2832-36.9141 39.4043-37.5977L21.0938-51.2695L17.1875-50.5859ZM19.1895-40.8691Q21.7773-40.8691 23.9014-42.1387Q26.0254-43.4082 27.2949-45.5566Q28.5645-47.7051 28.5645-50.293Q28.5645-52.8809 27.2949-55.0049Q26.0254-57.1289 23.9014-58.4229Q21.7773-59.7168 19.1895-59.7168Q16.6016-59.7168 14.4531-58.4473Q12.3047-57.1777 11.0352-55.0293Q9.76562-52.8809 9.76562-50.293Q9.76562-47.7051 11.0352-45.5566Q12.3047-43.4082 14.4531-42.1387Q16.6016-40.8691 19.1895-40.8691ZM59.8633-57.5684Q62.4512-57.5684 64.5752-58.8379Q66.6992-60.1074 67.9688-62.2559Q69.2383-64.4043 69.2383-66.9922Q69.2383-69.5801 67.9688-71.7041Q66.6992-73.8281 64.5752-75.0977Q62.4512-76.3672 59.8633-76.3672Q57.2754-76.3672 55.127-75.0977Q52.9785-73.8281 51.709-71.7041Q50.4395-69.5801 50.4395-66.9922Q50.4395-64.4043 51.709-62.2559Q52.9785-60.1074 55.127-58.8379Q57.2754-57.5684 59.8633-57.5684ZM100.537-40.8691Q103.125-40.8691 105.273-42.1387Q107.422-43.4082 108.691-45.5566Q109.961-47.7051 109.961-50.293Q109.961-52.8809 108.691-55.0293Q107.422-57.1777 105.298-58.4473Q103.174-59.7168 100.537-59.7168Q97.9492-59.7168 95.8252-58.4229Q93.7012-57.1289 92.4316-55.0049Q91.1621-52.8809 91.1621-50.293Q91.1621-47.7051 92.4316-45.5566Q93.7012-43.4082 95.8252-42.1387Q97.9492-40.8691 100.537-40.8691Z" />
</svg>
