<svg xmlns="http://www.w3.org/2000/svg" viewBox="11.259 -112.63 113.64 138.62" fill="hsl(0, 0%, 55%)">
  <path d="m11.259-30.958q0 11.866 4.4052 22.165 4.4052 10.298 12.199 18.113 7.7936 7.8148 18.092 12.239 10.298 4.4242 22.127 4.4242 11.828 0 22.127-4.4242 10.298-4.4241 18.091-12.239 7.794-7.8148 12.199-18.113 4.405-10.298 4.405-22.165 0-3.2621-2.068-5.3086-2.067-2.0466-5.267-2.0466-3.107 0-5.078 2.0466-1.97 2.0465-1.97 5.3086 0 8.8689-3.291 16.56-3.29 7.6913-9.1044 13.506-5.8141 5.8141-13.514 9.1047-7.6994 3.2906-16.53 3.2906t-16.522-3.2906q-7.6914-3.2906-13.506-9.1047-5.8141-5.8142-9.0834-13.506-3.2694-7.6913-3.2694-16.56 0-8.9635 3.211-16.7 3.2109-7.7366 8.952-13.559 5.741-5.8221 13.374-9.0914 7.633-3.2695 16.434-3.2695 2.6676 0 5.1548 0.214 2.4871 0.2141 4.557 0.6785l-15.821 15.728q-0.9671 0.954-1.4981 2.0951-0.5312 1.141-0.5312 2.6151 0 2.9639 2.0343 4.9981t4.9867 2.0342q2.9948 0 4.8543-1.9487l26.009-26.308q2.2855-2.3367 2.2855-5.3432 0-3.0241-2.2855-5.2892l-25.996-26.46q-1.9268-2.07-4.9189-2.07-2.9145 0-4.9422 2.08-2.0276 2.08-2.0276 5.073 0 1.488 0.5312 2.641 0.531 1.154 1.4603 2.121l14.124 14.015q-1.7377-0.3489-3.7715-0.5628t-4.2049-0.2139q-11.799 0-22.039 4.3547-10.24 4.3547-17.96 12.098-7.7205 7.7432-12.067 17.999-4.3468 10.256-4.3468 22.071z"/>
</svg>
