<?xml version="1.0" standalone="no"?>
<!DOCTYPE svg PUBLIC "-//W3C//DTD SVG 20010904//EN"
 "http://www.w3.org/TR/2001/REC-SVG-20010904/DTD/svg10.dtd">
<svg version="1.0" xmlns="http://www.w3.org/2000/svg"
 width="512.000000pt" height="512.000000pt" viewBox="0 0 512.000000 512.000000"
 preserveAspectRatio="xMidYMid meet">
<metadata>
Created by potrace 1.14, written by Peter Selinger 2001-2017
</metadata>
<g transform="translate(0.000000,512.000000) scale(0.100000,-0.100000)"
fill="#000000" stroke="none">
<path d="M0 2560 l0 -2560 2560 0 2560 0 0 2560 0 2560 -2560 0 -2560 0 0
-2560z m2675 1210 c88 -38 144 -106 170 -208 28 -108 -2 -208 -88 -293 l-49
-49 217 -324 c128 -193 225 -328 237 -331 21 -7 39 4 248 154 41 30 94 68 118
84 40 29 42 33 35 66 -5 20 -8 74 -8 122 1 82 2 87 40 144 51 75 115 119 195
133 240 43 422 -168 345 -399 -35 -103 -162 -199 -265 -199 -31 0 -32 -5 -110
-325 -17 -71 -42 -173 -55 -225 -14 -52 -26 -104 -27 -115 -3 -20 -14 -20
-1100 -29 -603 -5 -1108 -6 -1122 -2 -19 5 -26 14 -31 48 -4 24 -18 84 -31
133 -13 50 -44 175 -69 279 -59 239 -58 236 -93 236 -44 0 -123 30 -165 63
-99 77 -139 208 -102 333 70 237 400 287 538 81 49 -73 64 -146 47 -239 -11
-63 -11 -73 3 -82 38 -26 176 -126 256 -185 109 -80 125 -88 146 -71 9 8 101
140 204 294 104 155 200 298 214 319 l26 38 -59 58 c-71 70 -95 135 -88 241 6
83 28 129 90 191 45 44 83 63 163 83 34 8 125 -5 170 -24z m945 -1988 c0 -38
-70 -257 -93 -291 -54 -81 -112 -120 -205 -140 -83 -17 -1479 -15 -1554 3
-138 33 -197 108 -257 323 -17 62 -31 115 -31 118 0 3 482 5 1070 5 1032 0
1070 -1 1070 -18z"/>
</g>
</svg>
